<svg xmlns="http://www.w3.org/2000/svg" xmlns:xlink="http://www.w3.org/1999/xlink" width="40" height="40" viewBox="0 0 40 40"><defs><path id="a3lna" d="M673.74 348.02a16.04 16.04 0 0 1 6.18 21.78 15.93 15.93 0 0 1-22.6 5.65l-4.88 1.67 1.28-4.86c-4.11-4.94-5-12.1-1.7-18.06a15.93 15.93 0 0 1 21.72-6.18zm-20 7.14a14.03 14.03 0 0 0 24.5 13.65 14.03 14.03 0 0 0-24.5-13.65zm6.26.84h12v2h-12zm0 5h12v2h-12zm0 5h12v2h-12z"/></defs><g><g transform="translate(-646 -342)"><use fill="#2980b9" xlink:href="#a3lna"/></g></g></svg>