<svg xmlns="http://www.w3.org/2000/svg" xmlns:xlink="http://www.w3.org/1999/xlink" width="36" height="35" viewBox="0 0 36 35"><defs><path id="766sa" d="M166.02 520c13.7 0 13.5 18.27 13.16 23.6a4.3 4.3 0 1 1-2.07-.22c.17-5.27-.2-21.35-11.1-21.35-11.77 0-11.27 17.9-11.07 21.36a4.3 4.3 0 1 1-2 .16c-.32-3.2-1.71-23.55 13.08-23.55zm9.55 27.77a2.14 2.14 0 1 0 4.27-.01 2.14 2.14 0 0 0-4.27 0zm-23.45 0a2.14 2.14 0 1 0 4.27-.01 2.14 2.14 0 0 0-4.27 0z"/></defs><g><g transform="translate(-148 -518)"><use fill="#2980b9" xlink:href="#766sa"/></g></g></svg>