<svg xmlns="http://www.w3.org/2000/svg" xmlns:xlink="http://www.w3.org/1999/xlink" width="35" height="35" viewBox="0 0 35 35"><defs><path id="7v1sa" d="M755 1023a4 4 0 1 1 0 8.01 4 4 0 0 1 0-8zm-2.39 4a2.39 2.39 0 1 0 4.78 0 2.39 2.39 0 0 0-4.78 0zm30.39-.94v1.94h-20v-1.94zm0-12v1.94h-20v-1.94zm0 24v1.94h-20.06v-1.94zm-28-3.05a4 4 0 1 1 0 8 4 4 0 0 1 0-8zm-2.39 4a2.39 2.39 0 1 0 4.78 0 2.39 2.39 0 0 0-4.78 0zm2.4-28a4 4 0 1 1 0 8 4 4 0 0 1 0-8zm-2.4 4a2.39 2.39 0 1 0 4.78 0 2.39 2.39 0 0 0-4.78 0z"/></defs><g><g transform="translate(-749 -1010)"><use xlink:href="#7v1sa"/></g></g></svg>