<svg xmlns="http://www.w3.org/2000/svg" xmlns:xlink="http://www.w3.org/1999/xlink" width="26" height="35" viewBox="0 0 26 35"><defs><path id="nt5ka" d="M494 1043s-11.97-6.97-11.97-19c0-4.97 1.84-13 11.97-13 10.1 0 11.97 7 11.97 13 0 12.1-11.97 19-11.97 19zm10.3-18.77c0-5.21-1.62-11.3-10.3-11.3-8.7 0-10.3 6.98-10.3 11.3 0 10.47 10.3 16.53 10.3 16.53s10.3-6 10.3-16.53zm-10.3-5.2a4 4 0 1 1 .02 7.99 4 4 0 0 1-.02-7.99zm-2 3.97a2 2 0 1 0 4 0 2 2 0 0 0-4 0z"/></defs><g><g transform="translate(-481 -1009)"><use xlink:href="#nt5ka"/></g></g></svg>