<svg xmlns="http://www.w3.org/2000/svg" xmlns:xlink="http://www.w3.org/1999/xlink" width="35" height="35" viewBox="0 0 35 35"><defs><path id="u55oa" d="M666 878c12.63 0 11.1 12.3 11 13h5v19h-32v-19h4.98c-.15-1.29-1.27-13 11.02-13zm0 2.03c-10.4 0-9.18 9.9-9.02 10.97h18c.1-.64 1.65-10.97-8.98-10.97zm-14 28.03h28V893h-28zm14.47-12.03c2.48 0 4.5 2 4.5 4.47a4.48 4.48 0 0 1-4.5 4.47c-2.49 0-4.5-2-4.5-4.47a4.48 4.48 0 0 1 4.5-4.47zm-2.47 4.5c0 1.38 1.14 2.5 2.55 2.5 1.4 0 2.54-1.12 2.54-2.5s-1.14-2.5-2.54-2.5a2.52 2.52 0 0 0-2.55 2.5z"/></defs><g><g transform="translate(-648 -876)"><use fill="#2980b9" xlink:href="#u55oa"/></g></g></svg>