<svg xmlns="http://www.w3.org/2000/svg" xmlns:xlink="http://www.w3.org/1999/xlink" width="35" height="35" viewBox="0 0 35 35"><defs><path id="vbara" d="M666 710.63a9.38 9.38 0 1 1 0 18.76 9.38 9.38 0 0 1 0-18.76zm0-6.63l1.66 3.31h-3.32zm-1.66 28.69h3.32L666 736zm9.66-26.55l-.22 3.7-2.87-1.66zm-15.78 24.02l2.87 1.66-3.09 2.04zM679.86 712l-2.04 3.09-1.66-2.87zm-25.68 12.91l1.66 2.87-3.7.22zM682 720l-3.31 1.66v-3.32zm-28.69-1.66v3.32L650 720zm26.55 9.66l-3.7-.22 1.66-2.87zm-24.02-15.78l-1.66 2.87-2.04-3.09zM674 733.86l-3.09-2.04 2.87-1.66zm-12.91-25.68l-2.87 1.66-.22-3.7zm-2.1 11.72c0 3.91 3.14 7.09 7.01 7.09 3.87 0 7-3.18 7-7.1 0-3.9-3.13-7.08-7-7.08s-7 3.17-7 7.09z"/></defs><g><g transform="translate(-648 -702)"><use fill="#2980b9" xlink:href="#vbara"/></g></g></svg>