<svg xmlns="http://www.w3.org/2000/svg" xmlns:xlink="http://www.w3.org/1999/xlink" width="36" height="35" viewBox="0 0 36 35"><defs><path id="wk7ga" d="M182 378h-32s0-8.03 6-8.03 7-1.3 7-1.72v-2.01c-2.93-1.56-5-5.33-5-9.74 0-5.8 3.58-10.5 8-10.5s8 4.7 8 10.5c0 4.4-2.07 8.18-5 9.74v2c0 .34.94 1.73 6.97 1.73 6.12 0 6.03 8.03 6.03 8.03zm-7-5.97c-5.28 0-8-1.34-8-2.82V367h-2v2.21c0 1.31-2.74 2.82-8 2.82-4 0-4 4-4 4h26s0-4-4-4zm-15-15.5c0 4.7 2.68 8.5 5.98 8.5 3.3 0 5.99-3.8 5.99-8.5s-2.68-8.5-5.99-8.5c-3.3 0-5.98 3.8-5.98 8.5z"/></defs><g><g transform="translate(-148 -344)"><use fill="#2980b9" xlink:href="#wk7ga"/></g></g></svg>